<svg xmlns="http://www.w3.org/2000/svg" xmlns:xlink="http://www.w3.org/1999/xlink" xmlns:lucid="lucid" width="1100" height="200"><g transform="translate(-220 -460)" lucid:page-tab-id="0_0"><path d="M240 480h868.6v160H240z" stroke="#000" stroke-width="2" fill="#fff"/><path d="M431.4 528h117.77v96H431.4z" stroke="#000" stroke-width="2" fill="#fff"/><use xlink:href="#a" transform="matrix(1,0,0,1,436.3888888888889,533) translate(27.574999999999996 46.6)"/><path d="M550.17 575.46H588.83" stroke="#000" stroke-width="2" fill="none"/><path d="M550.17 576.46h-1v-2h1zM603.82 575.46l-14.27 4.64v-9.27z"/><path d="M607.05 575.46l-18.5 6.02v-12.03zm-16.5 3.26l10.03-3.26-10.03-3.25z"/><path d="M608.06 528h117.77v96H608.06z" stroke="#000" stroke-width="2" fill="#fff"/><use xlink:href="#b" transform="matrix(1,0,0,1,613.0555555555555,533) translate(28.025 46.6)"/><path d="M726.83 575.46h38.65" stroke="#000" stroke-width="2" fill="none"/><path d="M726.83 576.46h-1v-2h1zM780.5 575.46l-14.28 4.64v-9.27z"/><path d="M783.72 575.46l-18.5 6.02v-12.03zm-16.5 3.26l10.03-3.26-10.03-3.25z"/><path d="M784.72 528H902.5v96H784.72z" stroke="#000" stroke-width="2" fill="#fff"/><use xlink:href="#c" transform="matrix(1,0,0,1,789.7222222222222,533) translate(27 46.6)"/><path d="M903.5 576h38.65" stroke="#000" stroke-width="2" fill="none"/><path d="M903.5 577h-1v-2h1zM957.15 576l-14.26 4.64v-9.28z"/><path d="M960.4 576l-18.5 6v-12zm-16.5 3.26L953.9 576l-10.03-3.26z"/><path d="M961.4 528h117.77v96H961.4z" stroke="#000" stroke-width="2" fill="#fff"/><use xlink:href="#d" transform="matrix(1,0,0,1,966.3888888888889,533) translate(21.074999999999996 46.6)"/><path d="M1182.22 528H1300v96h-117.78z" stroke="#000" stroke-width="2" fill="#fff"/><use xlink:href="#e" transform="matrix(1,0,0,1,1187.2222222222222,533) translate(21.049999999999997 35.8)"/><use xlink:href="#f" transform="matrix(1,0,0,1,1187.2222222222222,533) translate(24.049999999999997 57.4)"/><path d="M254.72 528H372.5v96H254.72z" stroke="#000" stroke-width="2" fill="#fff"/><use xlink:href="#g" transform="matrix(1,0,0,1,259.7222222222222,533) translate(17.525 46.6)"/><path d="M372.5 528h58.9v96h-58.9z" fill="none"/><path d="M431.4 624c-3.32 0-6-2.7-6-6v-36c0-3.3-2.7-6-6-6 3.3 0 6-2.7 6-6v-36c0-3.3 2.68-6 6-6" stroke="#000" stroke-width="2" fill="none"/><path d="M1079.17 528h58.9v96h-58.9z" fill="none"/><path d="M1079.17 624c3.3 0 6-2.7 6-6v-36c0-3.3 2.68-6 6-6-3.32 0-6-2.7-6-6v-36c0-3.3-2.7-6-6-6M1100.68 575.77h40.27v.23H1163M1100.68 575.77h-3" stroke="#000" stroke-width="2" fill="none"/><path d="M1178 576l-14.28 4.64v-9.28z"/><path d="M1181.22 576l-18.5 6v-12zm-16.5 3.26l10.03-3.26-10.03-3.26z"/><path d="M373.5 576h18.07v-.07" stroke="#000" stroke-width="2" fill="none"/><path d="M373.5 577h-1v-2h1z"/><path d="M406.4 575.8l-14.22 4.76-.08-9.27z" stroke="#000" stroke-width="2"/><path d="M660 480h176.67v48H660z" stroke="#000" stroke-opacity="0" stroke-width="2" fill="#fff" fill-opacity="0"/><use xlink:href="#h" transform="matrix(1,0,0,1,665,485) translate(52.375 22.6)"/><defs><path d="M197 0v-115H63V0H30v-248h33v105h134v-105h34V0h-34" id="i"/><path d="M100-194c62-1 85 37 85 99 1 63-27 99-86 99S16-35 15-95c0-66 28-99 85-99zM99-20c44 1 53-31 53-75 0-43-8-75-51-75s-53 32-53 75 10 74 51 75" id="j"/><path d="M24 0v-261h32V0H24" id="k"/><path d="M85-194c31 0 48 13 60 33l-1-100h32l1 261h-30c-2-10 0-23-3-31C134-8 116 4 85 4 32 4 16-35 15-94c0-66 23-100 70-100zm9 24c-40 0-46 34-46 75 0 40 6 74 45 74 42 0 51-32 51-76 0-42-9-74-50-73" id="l"/><path d="M100-194c63 0 86 42 84 106H49c0 40 14 67 53 68 26 1 43-12 49-29l28 8c-11 28-37 45-77 45C44 4 14-33 15-96c1-61 26-98 85-98zm52 81c6-60-76-77-97-28-3 7-6 17-6 28h103" id="m"/><path d="M114-163C36-179 61-72 57 0H25l-1-190h30c1 12-1 29 2 39 6-27 23-49 58-41v29" id="n"/><g id="a"><use transform="matrix(0.05,0,0,0.05,0,0)" xlink:href="#i"/><use transform="matrix(0.05,0,0,0.05,12.950000000000001,0)" xlink:href="#j"/><use transform="matrix(0.05,0,0,0.05,22.950000000000003,0)" xlink:href="#k"/><use transform="matrix(0.05,0,0,0.05,26.900000000000002,0)" xlink:href="#l"/><use transform="matrix(0.05,0,0,0.05,36.900000000000006,0)" xlink:href="#m"/><use transform="matrix(0.05,0,0,0.05,46.900000000000006,0)" xlink:href="#n"/></g><path d="M212-179c-10-28-35-45-73-45-59 0-87 40-87 99 0 60 29 101 89 101 43 0 62-24 78-52l27 14C228-24 195 4 139 4 59 4 22-46 18-125c-6-104 99-153 187-111 19 9 31 26 39 46" id="o"/><path d="M141-36C126-15 110 5 73 4 37 3 15-17 15-53c-1-64 63-63 125-63 3-35-9-54-41-54-24 1-41 7-42 31l-33-3c5-37 33-52 76-52 45 0 72 20 72 64v82c-1 20 7 32 28 27v20c-31 9-61-2-59-35zM48-53c0 20 12 33 32 33 41-3 63-29 60-74-43 2-92-5-92 41" id="p"/><path d="M96-169c-40 0-48 33-48 73s9 75 48 75c24 0 41-14 43-38l32 2c-6 37-31 61-74 61-59 0-76-41-82-99-10-93 101-131 147-64 4 7 5 14 7 22l-32 3c-4-21-16-35-41-35" id="q"/><path d="M106-169C34-169 62-67 57 0H25v-261h32l-1 103c12-21 28-36 61-36 89 0 53 116 60 194h-32v-121c2-32-8-49-39-48" id="r"/><g id="b"><use transform="matrix(0.05,0,0,0.05,0,0)" xlink:href="#o"/><use transform="matrix(0.05,0,0,0.05,12.950000000000001,0)" xlink:href="#p"/><use transform="matrix(0.05,0,0,0.05,22.950000000000003,0)" xlink:href="#q"/><use transform="matrix(0.05,0,0,0.05,31.950000000000003,0)" xlink:href="#r"/><use transform="matrix(0.05,0,0,0.05,41.95,0)" xlink:href="#m"/></g><path d="M140-251c81 0 123 46 123 126C263-53 228-8 163 1c7 30 30 48 69 40v23c-55 16-95-15-103-61C56-3 17-48 17-125c0-80 42-126 123-126zm0 227c63 0 89-41 89-101s-29-99-89-99c-61 0-89 39-89 99S79-25 140-24" id="s"/><path d="M84 4C-5 8 30-112 23-190h32v120c0 31 7 50 39 49 72-2 45-101 50-169h31l1 190h-30c-1-10 1-25-2-33-11 22-28 36-60 37" id="t"/><g id="c"><use transform="matrix(0.05,0,0,0.05,0,0)" xlink:href="#s"/><use transform="matrix(0.05,0,0,0.05,14,0)" xlink:href="#t"/><use transform="matrix(0.05,0,0,0.05,24,0)" xlink:href="#m"/><use transform="matrix(0.05,0,0,0.05,34,0)" xlink:href="#t"/><use transform="matrix(0.05,0,0,0.05,44,0)" xlink:href="#m"/></g><path d="M190 0L58-211 59 0H30v-248h39L202-35l-2-213h31V0h-41" id="u"/><path d="M59-47c-2 24 18 29 38 22v24C64 9 27 4 27-40v-127H5v-23h24l9-43h21v43h35v23H59v120" id="v"/><path d="M206 0h-36l-40-164L89 0H53L-1-190h32L70-26l43-164h34l41 164 42-164h31" id="w"/><path d="M143 0L79-87 56-68V0H24v-261h32v163l83-92h37l-77 82L181 0h-38" id="x"/><g id="d"><use transform="matrix(0.05,0,0,0.05,0,0)" xlink:href="#u"/><use transform="matrix(0.05,0,0,0.05,12.950000000000001,0)" xlink:href="#m"/><use transform="matrix(0.05,0,0,0.05,22.950000000000003,0)" xlink:href="#v"/><use transform="matrix(0.05,0,0,0.05,27.950000000000003,0)" xlink:href="#w"/><use transform="matrix(0.05,0,0,0.05,40.900000000000006,0)" xlink:href="#j"/><use transform="matrix(0.05,0,0,0.05,50.900000000000006,0)" xlink:href="#n"/><use transform="matrix(0.05,0,0,0.05,56.85,0)" xlink:href="#x"/></g><path d="M30 0v-248h187v28H63v79h144v27H63v87h162V0H30" id="y"/><path d="M141 0L90-78 38 0H4l68-98-65-92h35l48 74 47-74h35l-64 92 68 98h-35" id="z"/><path d="M117-194c89-4 53 116 60 194h-32v-121c0-31-8-49-39-48C34-167 62-67 57 0H25l-1-190h30c1 10-1 24 2 32 11-22 29-35 61-36" id="A"/><g id="e"><use transform="matrix(0.05,0,0,0.05,0,0)" xlink:href="#y"/><use transform="matrix(0.05,0,0,0.05,12,0)" xlink:href="#z"/><use transform="matrix(0.05,0,0,0.05,21,0)" xlink:href="#v"/><use transform="matrix(0.05,0,0,0.05,26,0)" xlink:href="#m"/><use transform="matrix(0.05,0,0,0.05,36,0)" xlink:href="#n"/><use transform="matrix(0.05,0,0,0.05,41.95,0)" xlink:href="#A"/><use transform="matrix(0.05,0,0,0.05,51.95,0)" xlink:href="#p"/><use transform="matrix(0.05,0,0,0.05,61.95,0)" xlink:href="#k"/></g><path d="M185-189c-5-48-123-54-124 2 14 75 158 14 163 119 3 78-121 87-175 55-17-10-28-26-33-46l33-7c5 56 141 63 141-1 0-78-155-14-162-118-5-82 145-84 179-34 5 7 8 16 11 25" id="B"/><path d="M108 0H70L1-190h34L89-25l56-165h34" id="C"/><path d="M24-231v-30h32v30H24zM24 0v-190h32V0H24" id="D"/><g id="f"><use transform="matrix(0.05,0,0,0.05,0,0)" xlink:href="#B"/><use transform="matrix(0.05,0,0,0.05,12,0)" xlink:href="#m"/><use transform="matrix(0.05,0,0,0.05,22,0)" xlink:href="#n"/><use transform="matrix(0.05,0,0,0.05,27.950000000000003,0)" xlink:href="#C"/><use transform="matrix(0.05,0,0,0.05,36.95,0)" xlink:href="#D"/><use transform="matrix(0.05,0,0,0.05,40.900000000000006,0)" xlink:href="#q"/><use transform="matrix(0.05,0,0,0.05,49.900000000000006,0)" xlink:href="#m"/></g><path d="M160-131c35 5 61 23 61 61C221 17 115-2 30 0v-248c76 3 177-17 177 60 0 33-19 50-47 57zm-97-11c50-1 110 9 110-42 0-47-63-36-110-37v79zm0 115c55-2 124 14 124-45 0-56-70-42-124-44v89" id="E"/><path d="M135-143c-3-34-86-38-87 0 15 53 115 12 119 90S17 21 10-45l28-5c4 36 97 45 98 0-10-56-113-15-118-90-4-57 82-63 122-42 12 7 21 19 24 35" id="F"/><g id="g"><use transform="matrix(0.05,0,0,0.05,0,0)" xlink:href="#E"/><use transform="matrix(0.05,0,0,0.05,12,0)" xlink:href="#t"/><use transform="matrix(0.05,0,0,0.05,22,0)" xlink:href="#F"/><use transform="matrix(0.05,0,0,0.05,31,0)" xlink:href="#D"/><use transform="matrix(0.05,0,0,0.05,34.95,0)" xlink:href="#A"/><use transform="matrix(0.05,0,0,0.05,44.95,0)" xlink:href="#m"/><use transform="matrix(0.05,0,0,0.05,54.95,0)" xlink:href="#F"/><use transform="matrix(0.05,0,0,0.05,63.95,0)" xlink:href="#F"/></g><path d="M266 0h-40l-56-210L115 0H75L2-248h35L96-30l15-64 43-154h32l59 218 59-218h35" id="G"/><g id="h"><use transform="matrix(0.05,0,0,0.05,0,0)" xlink:href="#G"/><use transform="matrix(0.05,0,0,0.05,16.3,0)" xlink:href="#p"/><use transform="matrix(0.05,0,0,0.05,26.3,0)" xlink:href="#n"/><use transform="matrix(0.05,0,0,0.05,32.25,0)" xlink:href="#l"/><use transform="matrix(0.05,0,0,0.05,42.25,0)" xlink:href="#m"/><use transform="matrix(0.05,0,0,0.05,52.25,0)" xlink:href="#A"/></g></defs></g></svg>